<svg xmlns="http://www.w3.org/2000/svg" viewBox="0 0 609.45 405.83"><defs><style>.cls-1{fill:#aa373f;}.cls-2{fill:#ab373f;}.cls-3{fill:#ab383f;}.cls-4{fill:#ab383e;}.cls-5{fill:#010300;}.cls-6{fill:#010101;}.cls-7{fill:#010301;}.cls-8{fill:#0b0e09;}</style></defs><title>Vaca- Brisket unido</title><g id="Capa_2" data-name="Capa 2"><g id="Capa_1-2" data-name="Capa 1"><g id="Capa_1-2-2" data-name="Capa 1-2"><path id="Head" class="cls-1" d="M0,22c1.94-2.73,3.87-5.47,5.82-8.19,1.29-1.79,2.76-2.09,5-1.34,6.38,2.15,12.9,3.88,19.3,6a116.24,116.24,0,0,1,11.13,4.3c2.07.93,3.19.91,4.64-1.2,4.73-7,9.55-14.46,17.44-17.71,8.1-3.33,16.86-6.67,25.56-.07C94,7.65,99.74,10.61,105.2,14c.69.43,1.6.75,2,1.38,2.65,4.11,5.67,3.41,9.68,1.77s8.52-2.62,12.07,1.73a3.31,3.31,0,0,0,3.12.7c6.45-3.65,12.94-1.58,19.4-.32,7.89,1.55,15.8,3,23.61,5,3.91,1,7.61,2.85,11.4,4.32a76.17,76.17,0,0,1-2.14,24.16c-1.64,6.13-2.43,12.55-4.66,18.43a102,102,0,0,1-9.43,18.61c-5.24,8.17-10.57,16.48-17.1,23.58a166.19,166.19,0,0,1-40.17,32c-1.7,1-3.76,1.32-5.66,2l-6.84-9.53c-.27,0-.75-.16-1,0-3.81,3.13-8.14,1.61-12.41,1.89-9.25.59-16-5-23.62-8.2-5.2-2.2-9.37-2.88-13.86,1-3,2.67-6.68,1.26-9.66-.09-3.56-1.62-6.69-4.16-10-6.29-1-.65-2-1.77-3.06-1.79-7-.14-6.25-5.62-6.55-9.89-.25-3.64.5-7.35.92-11a2.73,2.73,0,0,1,1.13-1.83A41.42,41.42,0,0,0,38.67,82.5c1.22-2.89,0-7.11-.89-10.53S35,65.79,36.46,62.09c.38-1-.89-2.81-1.76-4-1.33-1.78-3.22-3.18-4.38-5-.52-.85.13-2.42.3-4.19l-2,.65a45.13,45.13,0,0,1-5.83-2.44,68.69,68.69,0,0,1-7.58-5.2A77.81,77.81,0,0,1,5.7,33.66C3.37,31.13,1.87,27.85,0,24.9Z"/><path id="Short_Loin" data-name="Short Loin" class="cls-2" d="M416.74,158.29c-.69-13.93-1.22-27.89-2.31-41.79-1.85-23.42-9.37-45-21.62-65.06-2.22-3.63-4.36-7.32-6.51-11a.25.25,0,0,1-.1-.08,24.49,24.49,0,0,0-2.53-2.46l-3.39.12-5.82.58-31.73-.08H340l-19.07.15c2.4,3.16,4.77,6.35,7.21,9.48,8.87,11.39,12.37,25,16.06,38.39a133.53,133.53,0,0,1,5,38.13c.2,2.42.4,4.85.59,7.27-.31.88.3,2.05.2,3a.5.5,0,0,1-.17.68h0v4.16a1.4,1.4,0,0,1,0,.29v1.27h0c-.26,8.79-.65,17.57-1,26.36,0,.83-.1,1.66-.15,2.5l.5.52,47.05-.22h20.52C416.76,166.12,416.93,162.2,416.74,158.29Z"/><path id="Sirloin" class="cls-2" d="M488.58,110.61c-3.93-13.87-9.21-27.14-16.71-39.3-5-8.13-11.76-15.2-17.73-22.75l-1.54-2c-3.6-2.34-7.28-4.57-10.78-7.06a73.46,73.46,0,0,1-5.89-5.12c-2.51.12-5,.15-7.52.37-8.66.77-17.3,1.76-26,2.36-5.77.4-11.55.55-17.34.73a13.39,13.39,0,0,1,1.81,1.8.91.91,0,0,1,.11.22,4.62,4.62,0,0,1,.64.61C403.35,61.4,413,84.89,415.53,110.9c1.89,19,2.58,38.16,3.81,57.24a12.81,12.81,0,0,0,.24,1.56l9.85.58,11.72.68a.51.51,0,0,1,.27-.06c1.63.13,3.27.06,4.91.12l.05-.06a.5.5,0,0,1,.22-.13h.2v-.13l4.51,1.21H467a.48.48,0,0,1,.36-.15,21.59,21.59,0,0,1,5.84.34h1a.45.45,0,0,1,.47.41l16.48.87v.14c.89,0,1.78.07,2.68.09a.46.46,0,0,1,.3-.11h4.24c.46-1.42,1.24-2.86,1.14-4.25C498.15,149.3,494,129.87,488.58,110.61Z"/><path id="Flank" class="cls-2" d="M498.63,175.13H494.5l-.09-.49c-1.11,0-2.22-.06-3.33-.1h-.18c-.71,0-1.42,0-2.13,0h-.13c-5.09,0-10.25,1-15.22-.92v-.28l-.4-.13h-4.7A.49.49,0,0,1,468,173H451.58l-5-.65v-.12H443v.16l-1.82-.12h-.05l-11.61-.75c-1.57,0-3.14,0-4.69-.1-5-.41-5.2-.44-5.19,4.68,0,13.41-.84,26.74-3.91,39.8-1.7,7.25-4.09,14.33-6.17,21.49l2.54.15a22.79,22.79,0,0,1,2-1.37c8.73-4.72,17.52-9.32,26.19-14.16,5.68-3.16,11.17-6.64,16.75-10l2.87-.59c2.59.48,5.69-1.58,7.77,1.54h.91l.05-.06.63-.12,4.4-.7L475,212l8.74-.7.73-.54h0l1.33-.14h3.68l2.93-1.25,2.89-.21h1.36l2-.48.19-.19.49-.59c.19-10.06.4-20.11.49-30.16C499.89,176.84,499.07,176,498.63,175.13Z"/><path id="Round" class="cls-2" d="M583.64,186.9c-1.69,3.29-3.12,6.74-5.11,9.83-4.24,6.62-3.92,14.33-5.69,21.54-1.2,4.91,0,9.21,1.93,13.61,2.84,6.6,5.44,13.29,8.14,20-3.58,3.62-7.19,7.22-10.73,10.9a8.16,8.16,0,0,0-1,2.21h0l-.75.75h0l-.76.75h0l-.76.76h0L557.3,273.8h.05c-1.32.33-2.67.57-4,1-4.69,1.54-9.37,3.13-14,4.7-.36-.73-.71-1.47-1.06-2.2L537.5,276c-2-4.6-4.06-9.22-6.16-13.8-5.06-11-10.12-22-15.29-33-.57-1.22-1.86-2.09-2.82-3.12h0l-1.49-2.21h0l-.75-.77v0l-.78-1.48h0l-.72-.77h0L508,218.72h0l-.74-.78h0c-.49-.73-1-1.46-1.48-2.2h0l-.77-1.46h0l-.74-.76h0l-.73-.78h0l-.78-1.46h.05l-.76-.78h0l-.78-1.48v0c.28-7.93,1.42-15.93.68-23.76-1.69-17.93-3.51-35.92-6.73-53.63-3.92-21.55-10.3-42.49-22.21-61.27-5.86-9.26-12-18.33-20.79-25.16-1.08-.91-2.09-1.89-3.23-2.71-3.95-2.82-7.95-5.57-11.92-8.35l26.36-3.74c2.62-.37,5.28-.5,7.86-1,6.46-1.34,12.72.16,19.06.91,4.19.51,8.43.57,12.65.86,9.85.67,19.33-2,29-3,4.65-.43,9.48.33,14.14,1.08A122,122,0,0,1,562,32.88,16,16,0,0,1,568.33,37c5.87,6,11.35,12.4,14.48,20.36.68,1.73.65,3.75.93,5.64.58,4,.88,8,1.79,11.88,1.63,7,3.63,13.81,5.47,20.71-.28,1.5-.91,3-.78,4.51q.63,7,1.74,13.9c2.4,14.87,1.45,29.78-.86,44.45C590.09,168.26,586.37,177.5,583.64,186.9Z"/><path id="Chuck" class="cls-2" d="M189.83,29.32l52.49,2.92c5.82,7.46,9.15,16.19,12.05,25a117.38,117.38,0,0,1,6.05,30c.83,14.51,4.39,28.79,2.85,43.53-.89,8.59-.55,17.29-.89,25.94-.21,5.37-.67,10.73-1,15.78L126.73,187.27l-.82-2.42c-.31-5.19-3.09-9.17-5.8-13.43-4.32-6.78-7.75-14.12-11.56-21.22l3.56-2.4c9.7-6.56,19.54-12.92,29-19.76,5.44-3.91,11.46-7.79,15.24-13.09,10.12-14.2,19.75-28.81,27.05-44.76a12.42,12.42,0,0,0,.92-3.44Q187.14,48,189.83,29.32Z"/><path id="Short_Plate" data-name="Short Plate" class="cls-3" d="M406.93,240.27c-1.58.82-3.13,1.69-4.74,2.45a20.36,20.36,0,0,0-8.5,8,9.23,9.23,0,0,1-12.69,3c-5.66-3.24-11.07-7.11-17.07-9.49-4.93-2-10.53-2.6-15.9-3.06-18.2-1.56-36.47-2.42-54.64-4.25-10.89-1.1-21.11,1.36-31.46,3.69-2.67.61-5.34,1.2-8,1.79a8.54,8.54,0,0,1,0-1.43c3.32-21.36,6.63-42.71,10.1-64a3.7,3.7,0,0,1,2.78-2.18c14.64-.61,29.29-1.18,43.94-1.49,22-.46,44-.68,66-1.06,8.9-.15,17.79-.42,26.69-.64h13.72c0,3.7.07,6.91,0,10.12-.37,14.92-2,29.66-6.18,44.07-1.31,4.58-2.14,9.29-3.19,13.94h0Z"/><path id="Brisket" class="cls-4" d="M250.17,176.4c-20.39,1.59-40.78,3.15-61.17,4.82-16.69,2-39,5.07-55.66,7.11-2.22.27-4.43.7-6.65,1.06,0,1.56-.07,3.11-.1,4.67,1.28,4.44,2.53,8.9,3.87,13.32a4.12,4.12,0,0,0,1.26,1.72c2.56,2.2,5,4.4,4.06,8.2a1.15,1.15,0,0,0,.28,1c4.11,3.66,7.87,7.84,12.52,10.77,5.36,3.41,11.84,5.18,16,10.33l.57.64,3.74,3.65,1.58,1.28,2.33,1.59,1.38.66,8,1.59,3.32.51,1.52.13,3.74.59.83.14,3.7.61.72.16,3,.52.94.32,9.91-.93.83-.08c11.79-1.59,24.26-4.29,36.05-5.81l2.63-.91c1-1,1.32-3.7,1.51-4.8,2.6-15.53,5-31.09,7.46-46.65l2.68-17.07Zm-55.6,27.81h0Z"/><path id="BL-L" class="cls-5" d="M537.59,275.74l.79,1.34c-2.07,4.27-4.22,8.51-6.18,12.83-3.1,6.86-6.15,13.75-9.09,20.69-2.46,5.77-4.78,11.61-7.06,17.46s-5,11.63-6.45,17.7c-1.76,7.41-2.48,15.08-3.45,22.65-.35,2.72-.13,5.24-4.22,3.64-1.88-.73-5.23,3.09-5.92,6.07-.87,3.7-1.91,7.37-2.88,11.05l-.58,1v.12a24.23,24.23,0,0,0-3.67.79c-3.11,1.18-6.17,3.51-9.26,3.53-5.12,0-10.26-1.4-15.39-2.21.31-1.46.23-3.18,1-4.33a43.62,43.62,0,0,1,5-5.69c2.39-2.5,4.94-4.79,4.2-8.89A4.49,4.49,0,0,1,476,370c6.15-5.08,5.3-12.35,6.31-19.08a31.7,31.7,0,0,1,1.79-6.4c1.5-4,3.15-7.87,4.78-11.78a27.78,27.78,0,0,1,2.36-5.14c5.17-7.51,5.13-15.93,4.55-24.47-.66-9.58-1.06-19.19-2.08-28.73-.41-3.93-2.14-7.72-3.27-11.57L480,227.41l-.79-1.45h0l-.74-.74h0l-.74-.74h0l-.74-.74h0l-.74-.74h0l-.76-.72h0l-.74-.76h0c-.22-.28-.45-.55-.68-.82h0l-.71-.79h0c-.31-.45-.61-.9-.91-1.36h.06l-.79-.7h0l-1-.85-2.84-3.42.6-.61.05-.06a1,1,0,0,0,.63-.12l4.4-.7L475,212l8.74-.7.73-.54h0l1.33-.14h3.68l2.93-1.25,2.89-.21h1.36l2-.48,3.06.67v0l.78,1.48h0l.76.78h-.05L504,213h0l.73.78h0l.74.76h0c.25.49.51,1,.77,1.46h0c.49.74,1,1.47,1.48,2.2h0l.74.78h0l1.48,2.19h0l.72.77h0l.78,1.48v-.05l.75.77h0l1.49,2.21h0c1.23,2.58,2.47,5.16,3.67,7.75q9.3,20.13,18.63,40.2C536,274.6,536.92,275.11,537.59,275.74Z"/><path id="FL" class="cls-6" d="M241.36,293.82l-3.57,5.57-.55,1.07h0l-.84,1.42h0A8.76,8.76,0,0,0,235,304a39.48,39.48,0,0,0-1.63,14c.85,16.51,1.2,33,1.73,49.56l-2.9,1.62-.81.66.06-.06-.78.78.06-.05-.78.78.06-.06-.78.78.06-.06-.78.79.06-.06-.78.78.06-.06-.79.79.07-.06-.79.79.07-.07-.79.79.07-.06-.79.79.08-.09c-.41,1.13-1.26,2.31-1.13,3.37a70.38,70.38,0,0,0,1.69,7.45h0l-.78.74c-2.54,7.31-9,6.77-14.81,7.17a132.19,132.19,0,0,1-15.16,0c-1.87-.08-3.7-1.05-6-1.75l4.26-4.65-8.45-3.36c3.22-3.54,6.23-7.08,9.52-10.33,1.76-1.75,2.6-3.12-.19-5.13,6.84-5.42,6.21-13.36,7.75-20.59A155.89,155.89,0,0,1,206,331.66c1.33-4,.3-7.51-.16-11.23a66.92,66.92,0,0,0-1.33-7c-.29-1.26-.49-3-1.36-3.58-3.93-2.77-4-7.05-4.95-11.06C194.9,285,195.38,271,196.13,257c.06-1.11,1.08-2.17,1.66-3.25a5.4,5.4,0,0,0,1.38.24c11.71-1.09,23.4-2.22,35.11-3.31,4-.37,8-.65,11.59-.94,1.09,10-1.32,19-4.73,27.93a7.08,7.08,0,0,0-.17,3.51c.56,3.52,1.28,7,1.93,10.54v-.05l-.64.87h0C242,292.93,241.68,293.37,241.36,293.82Z"/><path id="BL-R" class="cls-7" d="M586.88,272.92c1.2-6.89,1.38-13.46-3.16-19.34l-12.56,11.36h0l-.75.75h0l-.76.75h0l-.76.76h0c-1.87,2.86-4.6,4.19-7.51,5.21a.49.49,0,0,1-.28.64.47.47,0,0,1-.17,0,.44.44,0,0,1-.46-.36c-1.06.35-2.13.67-3.19,1h.05c-4.55,2.2-9.12,4.36-13.64,6.6a33.45,33.45,0,0,0-3.19,2.07c3,6.63,5.66,13.49,9.23,19.82,3.43,6.1,6.32,11.92,7.22,19.22,2.09,16.84,3.79,33.63,3.15,50.6a6,6,0,0,1-1,3.61,9.86,9.86,0,0,0-2.48,8.58c.5,3.47-.9,6.08-3,8.72-2.58,3.18-4.68,6.74-7,10.14,3.46.85,6.89,1.93,10.4,2.45a20.51,20.51,0,0,0,7.69-.14,104.58,104.58,0,0,0,10.75-3.65c1.46-3,4.16-6.08,4-9a11.45,11.45,0,0,1,2.45-8.08c3.28-4.1,4.82-7.94,4.11-13.75-1.07-8.7.21-17.67.12-26.53-.06-6.35-.77-12.69-1.12-19-.55-10-1.58-19.92-1.37-29.86C584,287.82,585.59,280.34,586.88,272.92Z"/><path id="Rib" class="cls-3" d="M348.18,136a.5.5,0,0,1-.08-.27v-13a.46.46,0,0,1,.13-.33c-2-12.85-3.42-25.85-6.49-38.44-2.91-11.91-7.21-23.62-15-33.6-2.21-2.84-4-6-6.17-8.87a23.74,23.74,0,0,0-2.7-2.7l-11.33-1q-11.87-1-23.74-2.11-18-1.68-36.08-3.38c1.48,3.91,2.75,7.91,4.47,11.71C258.12,59.37,263,75.4,264.31,92.14c1.73,22.53,3,45.14,1.09,67.77-.35,4-.66,8.09-1,12.72l82.86-2.77c.35-9.63.7-18.9,1-28.14a.44.44,0,0,1-.08-.25Z"/><path id="Tail" class="cls-8" d="M583.64,186.9c2.73-9.4,6.45-18.64,8-28.23,2.31-14.67,3.26-29.58.86-44.45-.75-4.61-1.32-9.25-1.74-13.9-.13-1.47.5-3,.78-4.51,1.58,5.8,3.69,11.52,4.6,17.42A184.66,184.66,0,0,1,597.93,136c.44,16.08.31,32.18,1,48.24.12,3.18,2.93,6.16,4,9.4,2.2,7,4,14.19,6,21.3.18,8,.43,16,.52,24.06,0,4.18-.19,8.36-.3,12.54l-3.93,9.65c-.73,3.42-1.41,6.86-2.23,10.26-.39,1.58-.14,3.8-2.8,3.74l-3.27-.81-1-.7c.14.52.29,1,.44,1.54v.35s-.51.2-.57.13c-3.21-4.06-2.82-9.22-4.16-13.85a57.5,57.5,0,0,0-2.32-6.73c-1.36-3.17-.84-6.11.36-8.92a18.31,18.31,0,0,1-1.78-3.1,100.81,100.81,0,0,1-3.15-10.19c-.87-3.92-1.93-8-1.79-11.9.35-9.71,1.42-19.38,2-29.08C585,190.27,584.08,188.57,583.64,186.9Z"/></g></g></g></svg>