<svg xmlns="http://www.w3.org/2000/svg" viewBox="0 0 609.37 405.69"><defs><style>.cls-1{fill:#aa373f;}.cls-2{fill:#ab373f;}.cls-3{fill:#ab383f;}.cls-4{fill:#ab383e;}.cls-5{fill:#010300;}.cls-6{fill:#010101;}.cls-7{fill:#010301;}.cls-8{fill:#0b0e09;}</style></defs>
<title>Vaca-SVG</title>
<g id="Capa_2" data-name="Capa 2"><g id="Capa_1-2" data-name="Capa 1">

<path id="Head" class="cls-1" d="M0,22c1.94-2.73,3.87-5.47,5.82-8.19,1.29-1.79,2.76-2.09,5-1.34,6.38,2.15,12.9,3.88,19.3,6a113.65,113.65,0,0,1,11.13,4.3c2.07.93,3.19.91,4.64-1.2C50.62,14.6,55.44,7.11,63.33,3.86c8.1-3.33,16.86-6.67,25.56-.07C94,7.65,99.74,10.61,105.2,14c.69.43,1.6.75,2,1.38,2.65,4.11,5.67,3.41,9.68,1.77s8.52-2.62,12.07,1.73a3.33,3.33,0,0,0,3.12.7c6.45-3.65,12.94-1.58,19.4-.32,7.89,1.55,15.8,3.05,23.61,5,3.91,1,7.61,2.85,11.4,4.32a76.24,76.24,0,0,1-2.14,24.16c-1.64,6.13-2.43,12.55-4.66,18.43a102.29,102.29,0,0,1-9.43,18.61c-5.24,8.17-10.57,16.48-17.1,23.58a166.41,166.41,0,0,1-40.17,32c-1.7,1-3.76,1.32-5.66,2l-6.84-9.53c-.27,0-.75-.16-1,0-3.81,3.13-8.14,1.61-12.41,1.89-9.25.59-16-5-23.62-8.2-5.2-2.2-9.37-2.88-13.86,1-3,2.67-6.68,1.26-9.66-.09-3.56-1.62-6.69-4.16-10-6.29-1-.65-2-1.77-3.06-1.79-7-.14-6.25-5.62-6.55-9.89-.25-3.64.5-7.35.92-11a2.75,2.75,0,0,1,1.13-1.83,41.44,41.44,0,0,0,16.3-19.13c1.22-2.89,0-7.11-.89-10.53s-2.77-6.18-1.32-9.88c.38-1-.89-2.81-1.76-4-1.33-1.78-3.22-3.18-4.38-5-.52-.85.13-2.42.3-4.19l-2,.65a45.85,45.85,0,0,1-5.83-2.44,69.65,69.65,0,0,1-7.58-5.2A78.08,78.08,0,0,1,5.7,33.66C3.37,31.13,1.87,27.85,0,24.9Z"/>

<path id="Short_Loin" data-name="Short Loin" class="cls-2" d="M416.74,158.29c-.69-13.93-1.22-27.89-2.31-41.79-1.85-23.42-9.37-45-21.62-65.06-2.22-3.63-4.36-7.32-6.51-11a.35.35,0,0,1-.1-.08,23.53,23.53,0,0,0-2.53-2.46l-3.39.12-5.82.58-31.73-.08-2.31,0-.21,0-.22,0-19.07.15c2.4,3.16,4.77,6.35,7.21,9.48C337,59.54,340.5,73.11,344.19,86.54a133.33,133.33,0,0,1,5,38.13q.3,3.63.59,7.27c-.31.88.3,2.05.2,3a.49.49,0,0,1-.18.68.29.29,0,0,1,0,.09v4.07a1,1,0,0,1,0,.29l0,1v.27s0,0,0,0c-.26,8.79-.65,17.57-1,26.36,0,.83-.1,1.66-.15,2.5l.5.52,47.05-.22c2.39,0,4.78,0,7.17,0h13.35C416.76,166.12,416.93,162.2,416.74,158.29Z"/>

<path id="Sirloin" class="cls-2" d="M488.58,110.61c-3.93-13.87-9.21-27.14-16.71-39.3-5-8.13-11.76-15.2-17.73-22.75l-1.54-2c-3.6-2.34-7.28-4.57-10.78-7.06a75,75,0,0,1-5.89-5.12c-2.51.12-5,.15-7.52.37-8.66.77-17.3,1.76-26,2.36-5.77.4-11.55.55-17.34.73a13.38,13.38,0,0,1,1.81,1.8.91.91,0,0,1,.11.22,4.16,4.16,0,0,1,.64.61c15.72,20.93,25.32,44.42,27.9,70.43,1.89,19,2.58,38.16,3.81,57.24,0,.35.1.7.24,1.56l9.85.58,11.72.68a.45.45,0,0,1,.27-.06c1.63.13,3.27.06,4.91.12l.05-.06a.46.46,0,0,1,.22-.13l.14,0h.06l0-.13,4.51,1.21H467a.46.46,0,0,1,.36-.15,21.15,21.15,0,0,1,5.84.34h1a.45.45,0,0,1,.47.41l16.48.87v.14c.89,0,1.78.07,2.68.09a.47.47,0,0,1,.3-.11h4.24c.46-1.42,1.24-2.86,1.14-4.25C498.15,149.3,494,129.87,488.58,110.61Z"/>

<path id="Flank" class="cls-2" d="M498.63,175.13H494.5l-.09-.49c-1.11,0-2.22-.06-3.33-.1h-.18c-.71,0-1.42-.05-2.13-.05a.5.5,0,0,1-.13,0c-5.09,0-10.25,1-15.22-.92l0-.28-.4-.13h-4.7A.5.5,0,0,1,468,173H451.58l-5-.65,0-.12H443v.16l-1.82-.12h-.05l-11.61-.75c-1.57,0-3.14,0-4.69-.1-5-.41-5.2-.44-5.19,4.68,0,13.41-.84,26.74-3.91,39.8-1.7,7.25-4.09,14.33-6.17,21.49l2.54.15a20.66,20.66,0,0,1,2-1.37c8.73-4.72,17.52-9.32,26.19-14.16,5.68-3.16,11.17-6.64,16.75-10l2.87-.59c2.59.48,5.69-1.58,7.77,1.54l.91,0,.05-.06.63-.12,4.4-.7L475,212l8.74-.7.73-.54,0,0,1.33-.14,3.68,0,2.93-1.25,2.89-.21h1.36l2-.48.19-.19.49-.59c.19-10.06.4-20.11.49-30.16C499.89,176.84,499.07,176,498.63,175.13Z"/>

<path id="Round" class="cls-2" d="M583.64,186.9c-1.69,3.29-3.12,6.74-5.11,9.83-4.24,6.62-3.92,14.33-5.69,21.54-1.2,4.91,0,9.21,1.93,13.61,2.84,6.6,5.44,13.29,8.14,20-3.58,3.62-7.19,7.22-10.73,10.9a8,8,0,0,0-1,2.21l0,0-.75.75,0,0-.76.75,0,0-.76.76,0,0-11.61,6.55.05,0c-1.32.33-2.67.57-4,1-4.69,1.54-9.37,3.13-14,4.7-.36-.73-.71-1.47-1.06-2.2l-.79-1.34c-2.05-4.6-4.06-9.22-6.16-13.8-5.06-11-10.12-22-15.29-32.95-.57-1.22-1.86-2.09-2.82-3.12l0,0-1.49-2.21,0,0-.75-.77,0,.05-.78-1.48v0l-.72-.77,0,0-1.48-2.19,0,0-.74-.78,0,0c-.49-.73-1-1.46-1.48-2.2l0,0-.77-1.46,0,0-.74-.76,0,0-.73-.78,0,0-.78-1.46.05,0-.76-.78,0,0-.78-1.48,0,.05c.28-7.93,1.42-15.93.68-23.76-1.69-17.93-3.51-35.92-6.73-53.63-3.92-21.55-10.3-42.49-22.21-61.27-5.86-9.26-12-18.33-20.79-25.16-1.08-.91-2.09-1.89-3.23-2.71-3.95-2.82-7.95-5.57-11.92-8.35q13.17-1.87,26.36-3.74c2.62-.37,5.28-.5,7.86-1,6.46-1.34,12.72.16,19.06.91,4.19.51,8.43.57,12.65.86,9.85.67,19.33-2.05,29-3,4.65-.43,9.48.33,14.14,1.08a122,122,0,0,1,15.8,3.58,15.91,15.91,0,0,1,6.38,4.11c5.87,6,11.35,12.4,14.48,20.36.68,1.73.65,3.75.93,5.64.58,4,.88,8,1.79,11.88,1.63,7,3.63,13.81,5.47,20.71-.28,1.5-.91,3-.78,4.51.42,4.65,1,9.29,1.74,13.9,2.4,14.87,1.45,29.78-.86,44.45C590.09,168.26,586.37,177.5,583.64,186.9Z"/>

<path id="Chuck" class="cls-2" d="M189.83,29.32l52.49,2.92c5.82,7.46,9.15,16.19,12.05,25a117.45,117.45,0,0,1,6.05,30c.83,14.51,4.39,28.79,2.85,43.53-.89,8.59-.55,17.29-.89,25.94-.21,5.37-.67,10.73-1,15.78L126.73,187.27l-.82-2.42c-.31-5.19-3.09-9.17-5.8-13.43-4.32-6.78-7.75-14.12-11.56-21.22l3.56-2.4c9.7-6.56,19.54-12.92,29-19.76,5.44-3.91,11.46-7.79,15.24-13.09,10.12-14.2,19.75-28.81,27.05-44.76a12.78,12.78,0,0,0,.92-3.44Q187.14,48,189.83,29.32Z"/>

<path id="Short_Plate" data-name="Short Plate" class="cls-3" d="M406.93,240.27c-1.58.82-3.13,1.69-4.74,2.45a20.37,20.37,0,0,0-8.5,8A9.23,9.23,0,0,1,381,253.7c-5.66-3.24-11.07-7.11-17.07-9.49-4.93-2-10.53-2.6-15.9-3.06-18.2-1.56-36.47-2.42-54.64-4.25-10.89-1.1-21.11,1.36-31.46,3.69-2.67.61-5.34,1.2-8,1.79a8.51,8.51,0,0,1,0-1.43c3.32-21.36,6.63-42.71,10.1-64a3.71,3.71,0,0,1,2.78-2.18c14.64-.61,29.29-1.18,43.94-1.49,22-.46,44-.68,66-1.06,8.9-.15,17.79-.42,26.69-.64h13.72c0,3.7.07,6.91,0,10.12-.37,14.92-2,29.66-6.18,44.07-1.31,4.58-2.14,9.29-3.19,13.94l.05,0Z"/>

<path id="Fore_Shank" data-name="Fore Shank" class="cls-4" d="M250.73,176.73c-20.39,1.59-40.78,3.15-61.17,4.82-1.29.1-2.51,1-3.79,1.37a24.71,24.71,0,0,0,0,3l.35,0c0,.68-.07,1.35-.11,2h0a25.07,25.07,0,0,0,.59,2.89.39.39,0,0,1,0,.32.62.62,0,0,1,0,.13c.32,1.48.64,3,1,4.42,4.17,18.22,9.89,35.89,18.41,52.6,1.27,2.49,2.67,3.18,5.31,2.83,11.79-1.59,23.61-3,35.4-4.52l2-4c1-1,2.6-1.9,2.79-3,2.6-15.53,5-31.09,7.46-46.65l2.68-17.07Zm-53.62,27.71a.5.5,0,0,1,0-1A.5.5,0,0,1,197.11,204.44Z"/>

<path id="Brisket" class="cls-4" d="M185.13,190.94l.14,0a9.76,9.76,0,0,1-.88-3.53,41.09,41.09,0,0,1-.12-4.3,10.9,10.9,0,0,0-2.65-.45q-24,2.94-48,6c-2.13.27-4.25.7-6.37,1.06,0,1.56-.07,3.11-.1,4.67,1.23,4.44,2.43,8.9,3.71,13.32a4.1,4.1,0,0,0,1.21,1.72c2.45,2.2,4.82,4.4,3.89,8.2a1.2,1.2,0,0,0,.27,1c3.94,3.66,7.54,7.84,12,10.77,5.14,3.41,11.35,5.18,15.34,10.33l.55.64,3.58,3.65,1.52,1.28,2.23,1.59,1.32.66,7.71,1.59,3.18.51,1.46.13,3.59.59.79.14,3.55.61.69.16,2.9.52.91.32h8.16C194.47,232.61,189.66,211.82,185.13,190.94Z"/>

<path id="BL-L" class="cls-5" d="M537.59,275.74l.79,1.34c-2.07,4.27-4.22,8.51-6.18,12.83-3.1,6.86-6.15,13.75-9.09,20.69-2.46,5.77-4.78,11.61-7.06,17.46s-5,11.63-6.45,17.7c-1.76,7.41-2.48,15.08-3.45,22.65-.35,2.72-.13,5.24-4.22,3.64-1.88-.73-5.23,3.09-5.92,6.07-.87,3.7-1.91,7.37-2.88,11.05l-.58,1v.12a23.47,23.47,0,0,0-3.67.79c-3.11,1.18-6.17,3.51-9.26,3.53-5.12,0-10.26-1.4-15.39-2.21.31-1.46.23-3.18,1-4.33a43.19,43.19,0,0,1,5-5.69c2.39-2.5,4.94-4.79,4.2-8.89A4.49,4.49,0,0,1,476,370c6.15-5.08,5.3-12.35,6.31-19.08a31.24,31.24,0,0,1,1.79-6.4c1.5-4,3.15-7.87,4.78-11.78a27.59,27.59,0,0,1,2.36-5.14c5.17-7.51,5.13-15.93,4.55-24.47-.66-9.58-1.06-19.19-2.08-28.73-.41-3.93-2.14-7.72-3.27-11.57L480,227.41l-.79-1.45,0,0-.74-.74h0l-.74-.74,0,0-.74-.74,0,0-.74-.74h0l-.76-.72h0l-.74-.76,0,0c-.22-.28-.45-.55-.68-.82l0,0-.71-.79,0,0c-.31-.45-.61-.9-.91-1.36l.06,0-.79-.7v0L470.76,217l-2.84-3.42.6-.61.05-.06a1,1,0,0,0,.63-.12l4.4-.7L475,212l8.74-.7.73-.54,0,0,1.33-.14,3.68,0,2.93-1.25,2.89-.21h1.36l2-.48,3.06.67,0-.05.78,1.48,0,0,.76.78-.05,0,.78,1.46,0,0,.73.78,0,0,.74.76,0,0c.25.49.51,1,.77,1.46l0,0c.49.74,1,1.47,1.48,2.2l0,0,.74.78,0,0,1.48,2.19,0,0,.72.77v0l.78,1.48,0-.05.75.77,0,0,1.49,2.21,0,0c1.23,2.58,2.47,5.16,3.67,7.75q9.3,20.12,18.63,40.2C536,274.6,536.92,275.11,537.59,275.74Z"/>

<path id="FL" class="cls-6" d="M241.36,293.82l-3.57,5.57-.55,1.07,0,0-.84,1.42,0,0A8.89,8.89,0,0,0,235,304a39.53,39.53,0,0,0-1.63,14c.85,16.51,1.2,33,1.73,49.56l-2.9,1.62-.81.66.06-.06-.78.78.06-.05-.78.78.06-.06-.78.78.06-.06-.78.79.06-.06-.78.78.06-.06-.79.79.07-.06-.79.79.07-.07-.79.79.07-.06-.79.79.08-.09c-.41,1.13-1.26,2.31-1.13,3.37a71.53,71.53,0,0,0,1.69,7.45l0,0-.78.74c-2.54,7.31-9,6.77-14.81,7.17a132.19,132.19,0,0,1-15.16,0c-1.87-.08-3.7-1.05-6-1.75l4.26-4.65-8.45-3.36c3.22-3.54,6.23-7.08,9.52-10.33,1.76-1.75,2.6-3.12-.19-5.13,6.84-5.42,6.21-13.36,7.75-20.59a155.38,155.38,0,0,1,4.33-17.54c1.33-3.95.3-7.51-.16-11.23a66.61,66.61,0,0,0-1.33-7c-.29-1.26-.49-3-1.36-3.58-3.93-2.77-4-7.05-4.95-11.06C194.9,285,195.38,271,196.13,257c.06-1.11,1.08-2.17,1.66-3.25a5.63,5.63,0,0,0,1.38.24c11.71-1.09,23.4-2.22,35.11-3.31,4-.37,8-.65,11.59-.94,1.09,10-1.32,19-4.73,27.93a7.15,7.15,0,0,0-.17,3.51c.56,3.52,1.28,7,1.93,10.54l0-.05-.64.87,0,0C242,292.93,241.68,293.37,241.36,293.82Z"/>

<path id="BL-R" class="cls-7" d="M586.88,272.92c1.2-6.89,1.38-13.46-3.16-19.34l-12.56,11.36,0,0-.75.75,0,0-.76.75,0,0-.76.76,0,0c-1.87,2.86-4.6,4.19-7.51,5.21a.49.49,0,0,1-.45.67.43.43,0,0,1-.46-.36c-1.06.35-2.13.67-3.19,1l.05,0c-4.55,2.2-9.12,4.36-13.64,6.6a31,31,0,0,0-3.19,2.07c3,6.63,5.66,13.49,9.23,19.82,3.43,6.1,6.32,11.92,7.22,19.22,2.09,16.84,3.79,33.63,3.15,50.6a6.06,6.06,0,0,1-1,3.61,9.85,9.85,0,0,0-2.48,8.58c.5,3.47-.9,6.08-3,8.72-2.58,3.18-4.68,6.74-7,10.14,3.46.85,6.89,1.93,10.4,2.45a20.7,20.7,0,0,0,7.69-.14,107.09,107.09,0,0,0,10.75-3.65c1.46-3,4.16-6.08,4.05-9a11.43,11.43,0,0,1,2.45-8.08c3.28-4.1,4.82-7.94,4.11-13.75-1.07-8.7.21-17.67.12-26.53-.06-6.35-.77-12.69-1.12-19-.55-10-1.58-19.92-1.37-29.86C584,287.82,585.59,280.34,586.88,272.92Z"/>

<path id="Rib" class="cls-3" d="M348.18,136a.46.46,0,0,1-.08-.27v-13a.45.45,0,0,1,.13-.33c-2-12.85-3.42-25.85-6.49-38.44-2.91-11.91-7.21-23.62-15-33.6-2.21-2.84-4-6-6.17-8.87a23,23,0,0,0-2.7-2.7l-11.33-1q-11.86-1-23.74-2.11Q264.78,34,246.72,32.3c1.48,3.91,2.75,7.91,4.47,11.71C258.12,59.37,263,75.4,264.31,92.14c1.73,22.53,3,45.14,1.09,67.77-.35,4-.66,8.09-1,12.72l82.86-2.77c.35-9.63.7-18.9,1-28.14a.41.41,0,0,1-.08-.25Z"/>

<path id="Tail" class="cls-8" d="M583.64,186.9c2.73-9.4,6.45-18.64,8-28.23,2.31-14.67,3.26-29.58.86-44.45-.75-4.61-1.32-9.25-1.74-13.9-.13-1.47.5-3,.78-4.51,1.58,5.8,3.69,11.52,4.6,17.42A184.25,184.25,0,0,1,597.93,136c.44,16.08.31,32.18,1,48.24.12,3.18,2.93,6.16,4,9.4,2.2,7,4,14.19,6,21.3.18,8,.43,16,.52,24.06,0,4.18-.19,8.36-.3,12.54l-3.93,9.65c-.73,3.42-1.41,6.86-2.23,10.26-.39,1.58-.14,3.8-2.8,3.74l-3.27-.81-1-.7c.14.52.29,1,.44,1.54,0,.12,0,.32,0,.35s-.51.2-.57.13c-3.21-4.06-2.82-9.22-4.16-13.85a56.87,56.87,0,0,0-2.32-6.73c-1.36-3.17-.84-6.11.36-8.92a18.81,18.81,0,0,1-1.78-3.1,99.84,99.84,0,0,1-3.15-10.19c-.87-3.92-1.93-8-1.79-11.9.35-9.71,1.42-19.38,2-29.08C585,190.27,584.08,188.57,583.64,186.9Z"/></g></g>

</svg>